# xmcd CD database file
#
# Track frame offsets:
#	150
#	10462
#	24512
#	35527
#	48330
#	61547
#	74052
#	85955
#	99407
#	112210
#	126102
#	140500
#
# Disc length: 2048 seconds
#
# Revision: 0
# Processed by: cddbd v1.5.1PL0 Copyright (c) Steve Scherf et al.
# Submitted via: CDex 1.51
#
DISCID=a607fe0c
DTITLE=Rusty Draper - Something Old, Something New
DYEAR=1970
DGENRE=Country
TTITLE0=Walking On New Grass
TTITLE1=By The Time I Get To Phoenix
TTITLE2=Little Ole Winedrinker Me
TTITLE3=Am I That Easy To Forget
TTITLE4=Not Enough Indians
TTITLE5=Something Old, Something New
TTITLE6=Don't Build No Fences For Me
TTITLE7=Wichita Lineman
TTITLE8=Release Me
TTITLE9=Gentle On My MInd
TTITLE10=Green, Green Grass Of Home
TTITLE11=I Walk Alone
EXTD=YEAR: 1970
EXTT0=
EXTT1=
EXTT2=
EXTT3=
EXTT4=
EXTT5=
EXTT6=
EXTT7=
EXTT8=
EXTT9=
EXTT10=
EXTT11=
PLAYORDER=
